# xmcd
#
# Track frame offsets: 
#        150
#        9826
#        18735
#        28435
#        38970
#        48401
#        59136
#        68075
#        76849
#        87001
#        95673
#        105209
#        113312
#        123578
#        130964
#        140706
#        151074
#        162937
#        171360
#        182047
#        192812
#        207288
#        214911
#        226723
#        235849
#        244331
#        253799
#        262600
#        269707
#        279707
#        289912
#        302232
#        311790
#        321068
#
# Disc length: 4420 seconds
#
# Revision: 2
# Processed by: cddbd v1.5.2PL0 Copyright (c) Steve Scherf et al.
# Submitted via: ExactAudioCopy v0.95b4
#
DISCID=ea114222
DTITLE=Various Artist - That'll Flat Git It! vol.27
DYEAR=2011
DGENRE=Rockabilly
TTITLE0=Jimmy Patton - Yah! I'm Movin'
TTITLE1=Whitey Pullen - Tuscaloosa Lucy
TTITLE2=Donnie Bowser - Got The Best Of Me
TTITLE3=Whitey Pullen - Walk My Way Back Home
TTITLE4=Pasty Clark - Whatcha Do To Me
TTITLE5=Jack Morris - Four Wheel Bungalow
TTITLE6=Jimmy Patton - Let Me Slide
TTITLE7=Joannie King - O.K. Doll, It's A Deal
TTITLE8=Lonnie Barron - Teenage Queen
TTITLE9=Whitey Pullen - Let's All Go Wild Tonight
TTITLE10=Larry Thornton - Honky Tonk Queen
TTITLE11=Evelyn Harlene with Casey Clark's Band - I Wanta Be Free
TTITLE12=Casey Clark and The Lazy Ranch Boys - Lost John
TTITLE13=Whitey Pullen - Drinkin' Wine
TTITLE14=Goldie Fields - Climbing This Mountain
TTITLE15=Rusty York - Sadie Mae
TTITLE16=Harley Gabbard and Aubrey Hold - Hey Baby
TTITLE17=Jimmy Patton - Love, Come Back To Me
TTITLE18=Goldie Fileds - Chatterbox
TTITLE19=Bobby Lile - Knockin' My Head (Against A Cold Stone Wall)
TTITLE20=Whitey Pullen - Moonshine Liquor
TTITLE21=Charlie Williams - Cotton Pickin' Ball
TTITLE22=Chuck Howard - Crazy, Crazy Baby
TTITLE23=Goldie Fields - Old Jealous Moon
TTITLE24=Wally and Don - Never No More
TTITLE25=Joannie King - History
TTITLE26=Herbie Smith - So Wild Over You
TTITLE27=Whitey Pullen - Everybody's Rockin'
TTITLE28=Tex Atchison - Tennessee Hound Dog
TTITLE29=Jack Morris and His Night Owls - White Line
TTITLE30=Eddie Dean and Joanie Hall - Open Up The Door
TTITLE31=Don Deal - So What
TTITLE32=Wally and Don - Please Don't
TTITLE33=Charlie Williams - Playing Guitar and Missing You
EXTD=Rollin Danny
EXTT0=
EXTT1=
EXTT2=
EXTT3=
EXTT4=
EXTT5=
EXTT6=
EXTT7=
EXTT8=
EXTT9=
EXTT10=
EXTT11=
EXTT12=
EXTT13=
EXTT14=
EXTT15=
EXTT16=
EXTT17=
EXTT18=
EXTT19=
EXTT20=
EXTT21=
EXTT22=
EXTT23=
EXTT24=
EXTT25=
EXTT26=
EXTT27=
EXTT28=
EXTT29=
EXTT30=
EXTT31=
EXTT32=
EXTT33=
PLAYORDER=
